# xmcd CD database file
#
# Track frame offsets:
#	150
#	16764
#	33692
#	50463
#	66764
#	81341
#	100463
#	114726
#	140901
#	156732
#	177892
#	199208
#
# Disc length: 2869 seconds
#
# Revision: 4
# Processed by: cddbd v1.5PL3 Copyright (c) Steve Scherf et al.
# Submitted via: CDex 1.51
#
DISCID=b30b330c
DTITLE=JENNIFER LOPEZ - THIS IS ME...THEN
DYEAR=2002
DGENRE=R&B
TTITLE0=Still
TTITLE1=Loving You
TTITLE2=I'm Glad
TTITLE3=The One
TTITLE4=Dear Ben
TTITLE5=All I Have (feat.LL COOL J)
TTITLE6=Jenny From The Block (feat.Styles&Jadakiss)
TTITLE7=Again
TTITLE8=You Belong To Me
TTITLE9=I've Been Thinkin'
TTITLE10=Baby I Love U!
TTITLE11=The One
EXTD=YEAR: 2002
EXTT0=
EXTT1=
EXTT2=
EXTT3=
EXTT4=
EXTT5=
EXTT6=
EXTT7=
EXTT8=
EXTT9=
EXTT10=
EXTT11=
PLAYORDER=
